<svg width="93" height="2" viewBox="0 0 93 2" fill="none" xmlns="http://www.w3.org/2000/svg">
<path fill-rule="evenodd" clip-rule="evenodd" d="M0.484375 2L1.74846e-07 2L0 0L0.484375 -4.23454e-08C1.03666 -9.06277e-08 1.48438 0.447715 1.48438 1C1.48438 1.55228 1.03666 2 0.484375 2ZM4.32813 1C4.32813 0.447715 4.77584 -4.17517e-07 5.32812 -4.658e-07L6.29688 -5.5049e-07C6.84916 -5.98773e-07 7.29688 0.447715 7.29688 0.999999C7.29688 1.55228 6.84916 2 6.29688 2L5.32813 2C4.77584 2 4.32813 1.55228 4.32813 1ZM10.1406 0.999999C10.1406 0.447714 10.5883 -9.25662e-07 11.1406 -9.73944e-07L12.1094 -1.05864e-06C12.6617 -1.10692e-06 13.1094 0.447714 13.1094 0.999999C13.1094 1.55228 12.6617 2 12.1094 2L11.1406 2C10.5883 2 10.1406 1.55228 10.1406 0.999999ZM15.9531 0.999999C15.9531 0.447714 16.4008 -1.43381e-06 16.9531 -1.48209e-06L17.9219 -1.56678e-06C18.4742 -1.61506e-06 18.9219 0.447714 18.9219 0.999998C18.9219 1.55228 18.4742 2 17.9219 2L16.9531 2C16.4008 2 15.9531 1.55228 15.9531 0.999999ZM21.7656 0.999998C21.7656 0.447713 22.2133 -1.94195e-06 22.7656 -1.99023e-06L23.7344 -2.07493e-06C24.2867 -2.12321e-06 24.7344 0.447713 24.7344 0.999998C24.7344 1.55228 24.2867 2 23.7344 2L22.7656 2C22.2133 2 21.7656 1.55228 21.7656 0.999998ZM27.5781 0.999998C27.5781 0.447713 28.0258 -2.4501e-06 28.5781 -2.49838e-06L29.5469 -2.58307e-06C30.0992 -2.63135e-06 30.5469 0.447713 30.5469 0.999997C30.5469 1.55228 30.0992 2 29.5469 2L28.5781 2C28.0258 2 27.5781 1.55228 27.5781 0.999998ZM33.3906 0.999997C33.3906 0.447712 33.8383 -2.95824e-06 34.3906 -3.00652e-06L35.3594 -3.09121e-06C35.9117 -3.1395e-06 36.3594 0.447712 36.3594 0.999997C36.3594 1.55228 35.9117 2 35.3594 2L34.3906 2C33.8383 2 33.3906 1.55228 33.3906 0.999997ZM39.2031 0.999997C39.2031 0.447712 39.6508 -3.46639e-06 40.2031 -3.51467e-06L41.1719 -3.59936e-06C41.7242 -3.64764e-06 42.1719 0.447712 42.1719 0.999996C42.1719 1.55228 41.7242 2 41.1719 2L40.2031 2C39.6508 2 39.2031 1.55228 39.2031 0.999997ZM45.0156 0.999996C45.0156 0.447711 45.4633 -3.97453e-06 46.0156 -4.02281e-06L46.9844 -4.1075e-06C47.5367 -4.15579e-06 47.9844 0.447711 47.9844 0.999996C47.9844 1.55228 47.5367 2 46.9844 2L46.0156 2C45.4633 2 45.0156 1.55228 45.0156 0.999996ZM50.8281 0.999996C50.8281 0.447711 51.2758 -4.48268e-06 51.8281 -4.53096e-06L52.7969 -4.61565e-06C53.3492 -4.66393e-06 53.7969 0.447711 53.7969 0.999995C53.7969 1.55228 53.3492 2 52.7969 2L51.8281 2C51.2758 2 50.8281 1.55228 50.8281 0.999996ZM56.6406 0.999995C56.6406 0.44771 57.0883 -4.99082e-06 57.6406 -5.0391e-06L58.6094 -5.12379e-06C59.1617 -5.17208e-06 59.6094 0.44771 59.6094 0.999995C59.6094 1.55228 59.1617 1.99999 58.6094 1.99999L57.6406 1.99999C57.0883 2 56.6406 1.55228 56.6406 0.999995ZM62.4531 0.999995C62.4531 0.44771 62.9008 -5.49897e-06 63.4531 -5.54725e-06L64.4219 -5.63194e-06C64.9742 -5.68022e-06 65.4219 0.44771 65.4219 0.999994C65.4219 1.55228 64.9742 1.99999 64.4219 1.99999L63.4531 1.99999C62.9008 1.99999 62.4531 1.55228 62.4531 0.999995ZM68.2656 0.999994C68.2656 0.447709 68.7133 -6.00711e-06 69.2656 -6.05539e-06L70.2344 -6.14008e-06C70.7867 -6.18837e-06 71.2344 0.447709 71.2344 0.999994C71.2344 1.55228 70.7867 1.99999 70.2344 1.99999L69.2656 1.99999C68.7133 1.99999 68.2656 1.55228 68.2656 0.999994ZM74.0781 0.999994C74.0781 0.447709 74.5258 -6.51526e-06 75.0781 -6.56354e-06L76.0469 -6.64823e-06C76.5992 -6.69651e-06 77.0469 0.447708 77.0469 0.999993C77.0469 1.55228 76.5992 1.99999 76.0469 1.99999L75.0781 1.99999C74.5258 1.99999 74.0781 1.55228 74.0781 0.999994ZM79.8906 0.999993C79.8906 0.447708 80.3383 -7.0234e-06 80.8906 -7.07168e-06L81.8594 -7.15637e-06C82.4117 -7.20466e-06 82.8594 0.447708 82.8594 0.999993C82.8594 1.55228 82.4117 1.99999 81.8594 1.99999L80.8906 1.99999C80.3383 1.99999 79.8906 1.55228 79.8906 0.999993ZM85.7031 0.999993C85.7031 0.447708 86.1508 -7.53155e-06 86.7031 -7.57983e-06L87.6719 -7.66452e-06C88.2242 -7.7128e-06 88.6719 0.447707 88.6719 0.999992C88.6719 1.55228 88.2242 1.99999 87.6719 1.99999L86.7031 1.99999C86.1508 1.99999 85.7031 1.55228 85.7031 0.999993ZM91.5156 0.999992C91.5156 0.447707 91.9633 -8.03969e-06 92.5156 -8.08797e-06L93 -8.13032e-06L93 1.99999L92.5156 1.99999C91.9633 1.99999 91.5156 1.55228 91.5156 0.999992Z" fill="#A0A0A0"/>
</svg>
