<svg width="38" height="31" viewBox="0 0 38 31" fill="none" xmlns="http://www.w3.org/2000/svg">
<path d="M20.7273 25.8333C20.7273 24.8861 19.95 24.1111 19 24.1111H3.45455V13.7778H34.5455V3.44444C34.5455 1.55 32.9909 0 31.0909 0H3.45455C1.53727 0 0.0172727 1.53278 0.0172727 3.44444L0 24.1111C0 26.0228 1.53727 27.5556 3.45455 27.5556H19C19.95 27.5556 20.7273 26.7806 20.7273 25.8333ZM31.0909 6.88889H3.45455V3.44444H31.0909V6.88889ZM31.0909 31C30.1409 31 29.3636 30.225 29.3636 29.2778V25.8333H25.9091C24.9591 25.8333 24.1818 25.0583 24.1818 24.1111C24.1818 23.1639 24.9591 22.3889 25.9091 22.3889H29.3636V18.9444C29.3636 17.9972 30.1409 17.2222 31.0909 17.2222C32.0409 17.2222 32.8182 17.9972 32.8182 18.9444V22.3889H36.2727C37.2227 22.3889 38 23.1639 38 24.1111C38 25.0583 37.2227 25.8333 36.2727 25.8333H32.8182V29.2778C32.8182 30.225 32.0409 31 31.0909 31Z" fill="#34A8FF"/>
</svg>
