<svg width="23" height="19" viewBox="0 0 23 19" fill="none" xmlns="http://www.w3.org/2000/svg">
<path d="M15.5254 13.8C17.1132 13.8 18.4004 12.5128 18.4004 10.925C18.4004 9.33717 17.1132 8.04999 15.5254 8.04999C13.9376 8.04999 12.6504 9.33717 12.6504 10.925C12.6504 12.5128 13.9376 13.8 15.5254 13.8Z" fill="#34A8FF"/>
<path d="M11.4998 10.925C11.4998 9.98774 11.9552 9.16319 12.6498 8.63879C12.1551 8.25836 11.5489 8.05143 10.9248 8.04999C10.1623 8.04999 9.43104 8.35289 8.89187 8.89206C8.35271 9.43122 8.0498 10.1625 8.0498 10.925C8.0498 11.6875 8.35271 12.4188 8.89187 12.9579C9.43104 13.4971 10.1623 13.8 10.9248 13.8C11.5489 13.7985 12.1551 13.5916 12.6498 13.2112C12.2937 12.9457 12.0043 12.6008 11.8047 12.2039C11.6051 11.8071 11.5007 11.3692 11.4998 10.925Z" fill="#34A8FF"/>
<path d="M20.7 0H2.3C1.03155 0 0 1.03155 0 2.3V16.1C0 17.3685 1.03155 18.4 2.3 18.4H20.7C21.9685 18.4 23 17.3685 23 16.1V2.3C23 1.03155 21.9685 0 20.7 0ZM2.3 16.1V2.3H20.7L20.7023 16.1H2.3Z" fill="#34A8FF"/>
</svg>
