<svg width="31" height="29" viewBox="0 0 31 29" fill="none" xmlns="http://www.w3.org/2000/svg">
<path d="M4.65 0H26.35C27.5833 0 28.766 0.482258 29.638 1.34068C30.5101 2.19911 31 3.36338 31 4.57738V16.7837C31 17.9977 30.5101 19.162 29.638 20.0204C28.766 20.8788 27.5833 21.3611 26.35 21.3611H15.5651L5.5769 28.6971C5.3464 28.8664 5.07259 28.9692 4.78611 28.9941C4.49963 29.019 4.21177 28.9649 3.95474 28.8379C3.6977 28.7109 3.48163 28.516 3.33067 28.2751C3.17972 28.0341 3.09985 27.7565 3.1 27.4734V21.3611C2.27783 21.3611 1.48933 21.0396 0.907969 20.4673C0.326606 19.895 0 19.1189 0 18.3095V4.57738C0 3.36338 0.489909 2.19911 1.36195 1.34068C2.234 0.482258 3.41674 0 4.65 0V0ZM14.5359 18.3095H26.35C26.7611 18.3095 27.1553 18.1488 27.446 17.8626C27.7367 17.5765 27.9 17.1884 27.9 16.7837V4.57738C27.9 4.17271 27.7367 3.78462 27.446 3.49848C27.1553 3.21234 26.7611 3.05159 26.35 3.05159H4.65C4.23891 3.05159 3.84467 3.21234 3.55398 3.49848C3.2633 3.78462 3.1 4.17271 3.1 4.57738V16.7837C3.1 17.1884 3.2633 17.5765 3.55398 17.8626C3.84467 18.1488 4.23891 18.3095 4.65 18.3095C5.06109 18.3095 5.45533 18.4703 5.74602 18.7564C6.0367 19.0426 6.2 19.4306 6.2 19.8353V24.4325L14.5359 18.3095ZM20.15 13.7321C19.3278 13.7321 18.5393 13.4106 17.958 12.8384C17.3766 12.2661 17.05 11.4899 17.05 10.6806C17.05 9.87122 17.3766 9.09504 17.958 8.52276C18.5393 7.95047 19.3278 7.62897 20.15 7.62897C20.9722 7.62897 21.7607 7.95047 22.342 8.52276C22.9234 9.09504 23.25 9.87122 23.25 10.6806C23.25 11.4899 22.9234 12.2661 22.342 12.8384C21.7607 13.4106 20.9722 13.7321 20.15 13.7321ZM10.85 13.7321C10.0278 13.7321 9.23933 13.4106 8.65797 12.8384C8.07661 12.2661 7.75 11.4899 7.75 10.6806C7.75 9.87122 8.07661 9.09504 8.65797 8.52276C9.23933 7.95047 10.0278 7.62897 10.85 7.62897C11.6722 7.62897 12.4607 7.95047 13.042 8.52276C13.6234 9.09504 13.95 9.87122 13.95 10.6806C13.95 11.4899 13.6234 12.2661 13.042 12.8384C12.4607 13.4106 11.6722 13.7321 10.85 13.7321Z" fill="#6A93AA"/>
</svg>
