<svg width="17" height="13" viewBox="0 0 17 13" fill="none" xmlns="http://www.w3.org/2000/svg">
<path d="M14.3575 0.414466C14.6512 0.145686 15.0422 -0.00290628 15.4478 4.30801e-05C15.8534 0.00299244 16.2419 0.157253 16.5314 0.430275C16.8209 0.703296 16.9887 1.07372 16.9995 1.46339C17.0102 1.85306 16.863 2.23149 16.5889 2.51883L8.26807 12.5196C8.12499 12.6677 7.9523 12.7866 7.76033 12.8691C7.56837 12.9515 7.36106 12.996 7.15081 12.9997C6.94056 13.0035 6.73168 12.9664 6.53666 12.8908C6.34165 12.8152 6.1645 12.7026 6.01582 12.5597L0.497806 7.25667C0.344139 7.11906 0.220886 6.95311 0.135401 6.76873C0.0499155 6.58435 0.00394874 6.38531 0.000243409 6.18349C-0.00346193 5.98166 0.0351701 5.78119 0.113834 5.59402C0.192498 5.40686 0.309583 5.23684 0.458104 5.0941C0.606624 4.95137 0.783538 4.83885 0.978291 4.76325C1.17304 4.68765 1.38165 4.65052 1.59165 4.65408C1.80166 4.65764 2.00877 4.70182 2.20063 4.78397C2.39249 4.86613 2.56516 4.98458 2.70835 5.13226L7.07521 9.32697L14.3179 0.458558C14.3309 0.443128 14.3448 0.428407 14.3596 0.414466H14.3575Z" fill="white"/>
</svg>
