<svg width="29" height="24" viewBox="0 0 29 24" fill="none" xmlns="http://www.w3.org/2000/svg">
<path d="M0 7.2912V19.2C0 20.473 0.509225 21.6939 1.41565 22.5941C2.32208 23.4943 3.55145 24 4.83333 24H24.1667C25.4485 24 26.6779 23.4943 27.5843 22.5941C28.4908 21.6939 29 20.473 29 19.2V4.8C29 3.52696 28.4908 2.30606 27.5843 1.40589C26.6779 0.505713 25.4485 0 24.1667 0H4.83333C3.55145 0 2.32208 0.505713 1.41565 1.40589C0.509225 2.30606 0 3.52696 0 4.8V7.2912ZM4.83333 2.4H24.1667C24.8076 2.4 25.4223 2.65286 25.8755 3.10294C26.3287 3.55303 26.5833 4.16348 26.5833 4.8V6.576L14.5 13.0368L2.41667 6.576V4.8C2.41667 4.16348 2.67128 3.55303 3.12449 3.10294C3.5777 2.65286 4.19239 2.4 4.83333 2.4ZM2.41667 9.3024L13.9273 15.456C14.1033 15.5501 14.3001 15.5994 14.5 15.5994C14.6999 15.5994 14.8967 15.5501 15.0728 15.456L26.5833 9.3024V19.2C26.5833 19.8365 26.3287 20.447 25.8755 20.8971C25.4223 21.3471 24.8076 21.6 24.1667 21.6H4.83333C4.19239 21.6 3.5777 21.3471 3.12449 20.8971C2.67128 20.447 2.41667 19.8365 2.41667 19.2V9.3024Z" fill="#34A8FF"/>
</svg>
