<svg width="106" height="106" viewBox="0 0 106 106" fill="none" xmlns="http://www.w3.org/2000/svg">
<path d="M53 0C23.4714 0 0 23.4714 0 53C0 82.5286 23.4714 106 53 106C82.5286 106 106 82.5286 106 53C106 23.4714 82.5286 0 53 0ZM53 98.4286C28.0143 98.4286 7.57143 77.9857 7.57143 53C7.57143 28.0143 28.0143 7.57143 53 7.57143C77.9857 7.57143 98.4286 28.0143 98.4286 53C98.4286 77.9857 77.9857 98.4286 53 98.4286Z" fill="#E77676"/>
<path d="M73.4429 79.5L53 59.0571L32.5571 79.5L26.5 73.4429L46.9429 53L26.5 32.5571L32.5571 26.5L53 46.9429L73.4429 26.5L79.5 32.5571L59.0571 53L79.5 73.4429L73.4429 79.5Z" fill="#E77676"/>
</svg>
