<svg width="21" height="24" viewBox="0 0 21 24" fill="none" xmlns="http://www.w3.org/2000/svg">
<path fill-rule="evenodd" clip-rule="evenodd" d="M20.7375 5.89714L14.9975 0.24L14.385 0H0.875L0 0.857143V10.2857H1.75V1.71429H12.25V7.71429L13.125 8.57143H19.25V10.2857H21V6.51429L20.7375 5.89714ZM14 6.85714V1.71429L19.25 6.85714H14ZM0.875 12L0 12.8571V23.1429L0.875 24H20.125L21 23.1429V12.8571L20.125 12H0.875ZM19.25 20.5714V22.2857H1.75V13.7143H19.25V20.5714ZM5.25 18.8571H4.69V20.5714H3.5V15.4286H5.355C6.6675 15.4286 7.3325 16.0457 7.3325 17.1429C7.33589 17.376 7.28757 17.6071 7.19089 17.8202C7.0942 18.0333 6.95145 18.2234 6.7725 18.3771C6.33881 18.7083 5.79945 18.8783 5.25 18.8571ZM5.145 16.3714H4.69V17.9657H5.145C5.775 17.9657 6.09 17.6914 6.09 17.16C6.09 16.6286 5.775 16.3714 5.145 16.3714ZM12.25 19.8514C12.5085 19.6021 12.7105 19.3023 12.8432 18.9715C12.9758 18.6408 13.0361 18.2864 13.02 17.9314C13.02 16.2171 12.0925 15.4286 10.22 15.4286H8.365V20.5714H10.22C10.5902 20.589 10.9602 20.5344 11.3087 20.4108C11.6572 20.2872 11.9771 20.0971 12.25 19.8514ZM9.5375 19.6286V16.3714H10.115C10.3382 16.3575 10.562 16.3884 10.7726 16.4621C10.9832 16.5358 11.1763 16.6507 11.34 16.8C11.4883 16.9526 11.6036 17.133 11.6788 17.3304C11.7539 17.5278 11.7875 17.7381 11.7775 17.9486C11.8037 18.4004 11.6464 18.8441 11.34 19.1829C11.1798 19.333 10.9902 19.4499 10.7827 19.5265C10.5752 19.6031 10.354 19.6378 10.1325 19.6286H9.5375ZM17.325 18.5829H15.6275V20.5714H14.4375V15.4286H17.4825V16.3714H15.6275V17.64H17.325V18.5829Z" fill="#34A8FF"/>
</svg>
