<svg width="22" height="23" viewBox="0 0 22 23" fill="none" xmlns="http://www.w3.org/2000/svg">
<path d="M8.55556 2.46429H22V4.10714H8.55556V2.46429ZM0 3.28571C0 3.93557 0.191152 4.57083 0.549284 5.11116C0.907416 5.65149 1.41644 6.07263 2.01199 6.32132C2.60755 6.57001 3.26287 6.63508 3.89511 6.5083C4.52734 6.38152 5.10809 6.06858 5.5639 5.60907C6.01972 5.14955 6.33013 4.56409 6.45589 3.92673C6.58165 3.28936 6.51711 2.62871 6.27042 2.02833C6.02374 1.42794 5.60599 0.914782 5.07001 0.553743C4.53402 0.192704 3.90388 0 3.25926 0C2.39515 0.000978366 1.56671 0.347465 0.955687 0.963444C0.344667 1.57942 0.000970489 2.41459 0 3.28571ZM3.25926 1.64286C3.58157 1.64286 3.89664 1.73921 4.16463 1.91973C4.43262 2.10025 4.6415 2.35683 4.76484 2.65702C4.88818 2.95721 4.92046 3.28754 4.85758 3.60622C4.7947 3.9249 4.63949 4.21763 4.41158 4.44739C4.18367 4.67715 3.8933 4.83361 3.57718 4.897C3.26107 4.96039 2.9334 4.92786 2.63563 4.80352C2.33785 4.67917 2.08334 4.4686 1.90427 4.19844C1.72521 3.92827 1.62963 3.61064 1.62963 3.28571C1.63011 2.85015 1.80196 2.43257 2.10747 2.12458C2.41298 1.81659 2.8272 1.64335 3.25926 1.64286ZM8.55556 10.6786H22V12.3214H8.55556V10.6786ZM3.25926 14.7857C3.90388 14.7857 4.53402 14.593 5.07001 14.232C5.60599 13.8709 6.02374 13.3578 6.27042 12.7574C6.51711 12.157 6.58165 11.4964 6.45589 10.859C6.33013 10.2216 6.01972 9.63616 5.5639 9.17665C5.10809 8.71713 4.52734 8.4042 3.89511 8.27742C3.26287 8.15064 2.60755 8.21571 2.01199 8.4644C1.41644 8.71308 0.907416 9.13422 0.549284 9.67456C0.191152 10.2149 0 10.8501 0 11.5C0.000970489 12.3711 0.344667 13.2063 0.955687 13.8223C1.56671 14.4383 2.39515 14.7847 3.25926 14.7857ZM3.25926 9.85714C3.58157 9.85714 3.89664 9.9535 4.16463 10.134C4.43262 10.3145 4.6415 10.5711 4.76484 10.8713C4.88818 11.1715 4.92046 11.5018 4.85758 11.8205C4.7947 12.1392 4.63949 12.4319 4.41158 12.6617C4.18367 12.8914 3.8933 13.0479 3.57718 13.1113C3.26107 13.1747 2.9334 13.1421 2.63563 13.0178C2.33785 12.8935 2.08334 12.6829 1.90427 12.4127C1.72521 12.1426 1.62963 11.8249 1.62963 11.5C1.63011 11.0644 1.80196 10.6469 2.10747 10.3389C2.41298 10.0309 2.8272 9.85763 3.25926 9.85714ZM8.55556 18.8929H22V20.5357H8.55556V18.8929ZM3.25926 23C3.90388 23 4.53402 22.8073 5.07001 22.4463C5.60599 22.0852 6.02374 21.5721 6.27042 20.9717C6.51711 20.3713 6.58165 19.7106 6.45589 19.0733C6.33013 18.4359 6.01972 17.8505 5.5639 17.3909C5.10809 16.9314 4.52734 16.6185 3.89511 16.4917C3.26287 16.3649 2.60755 16.43 2.01199 16.6787C1.41644 16.9274 0.907416 17.3485 0.549284 17.8888C0.191152 18.4292 0 19.0644 0 19.7143C0.000970489 20.5854 0.344667 21.4206 0.955687 22.0366C1.56671 22.6525 2.39515 22.999 3.25926 23ZM3.25926 18.0714C3.58157 18.0714 3.89664 18.1678 4.16463 18.3483C4.43262 18.5288 4.6415 18.7854 4.76484 19.0856C4.88818 19.3858 4.92046 19.7161 4.85758 20.0348C4.7947 20.3535 4.63949 20.6462 4.41158 20.876C4.18367 21.1057 3.8933 21.2622 3.57718 21.3256C3.26107 21.389 2.9334 21.3564 2.63563 21.2321C2.33785 21.1077 2.08334 20.8972 1.90427 20.627C1.72521 20.3568 1.62963 20.0392 1.62963 19.7143C1.63011 19.2787 1.80196 18.8611 2.10747 18.5532C2.41298 18.2452 2.8272 18.0719 3.25926 18.0714Z" fill="#3E3E3E"/>
</svg>
