<svg width="103" height="30" viewBox="0 0 103 30" fill="none" xmlns="http://www.w3.org/2000/svg">
<path d="M102.77 30V25.8543L0.000312805 25.8543V30L102.77 30Z" fill="black"/>
<path d="M0 0H3.50438L10.0928 12.177L16.6477 0H20.1805V21.5429H16.0804V9.93278L11.5884 18.1315H8.59462L4.10262 9.93278V21.5429H0V0Z" fill="black"/>
<path d="M39.2495 14.0631C39.2495 18.3428 35.7761 21.8418 31.4646 21.8418C27.1841 21.8418 23.6797 18.3402 23.6797 14.0631C23.6797 9.75499 27.1841 6.28431 31.4646 6.28431C35.7761 6.28431 39.2495 9.75499 39.2495 14.0631ZM31.4646 17.7424C33.5017 17.7424 35.1469 16.096 35.1469 14.0631C35.1469 12.0301 33.4992 10.3837 31.4646 10.3837C29.4275 10.3837 27.7823 12.0301 27.7823 14.0631C27.7823 16.096 29.4301 17.7424 31.4646 17.7424Z" fill="black"/>
<path d="M46.3075 13.8234L40.7685 6.58319H45.7685L50.3508 12.6253V6.58319H54.4534V12.6253L59.0356 6.58061H64.0356L58.4967 13.8209L64.3657 21.5403H59.3941L54.4534 15.019V21.5403H50.3508V15.019L45.4101 21.5429H40.4385L46.3075 13.8234Z" fill="black"/>
<path d="M72.1761 6.58318V12.0585H79.2132V6.58318H83.2256V21.5429H79.2132V16.0676H72.1761V21.5429H68.1328V6.58318H72.1761Z" fill="black"/>
<path d="M102.277 14.0631C102.277 18.3428 98.8034 21.8418 94.492 21.8418C90.2088 21.8418 86.707 18.3402 86.707 14.0631C86.707 9.75499 90.2114 6.28431 94.492 6.28431C98.8034 6.28431 102.277 9.75499 102.277 14.0631ZM94.492 17.7424C96.5291 17.7424 98.1743 16.096 98.1743 14.0631C98.1743 12.0301 96.5265 10.3837 94.492 10.3837C92.4574 10.3837 90.8097 12.0301 90.8097 14.0631C90.8097 16.096 92.4574 17.7424 94.492 17.7424Z" fill="black"/>
</svg>
