<svg width="12" height="17" viewBox="0 0 12 17" fill="none" xmlns="http://www.w3.org/2000/svg">
<path d="M0.85663 1.48571V14.5457C0.85663 14.8655 1.10592 15.1248 1.41344 15.1248C1.52492 15.1248 1.63384 15.0899 1.72609 15.0248L10.854 8.58332C11.1554 8.3706 11.234 7.94401 11.0294 7.63052C10.9826 7.55871 10.923 7.4968 10.854 7.44807L1.72609 1.00655C1.47163 0.826972 1.12536 0.895929 0.952693 1.16056C0.890095 1.2565 0.85663 1.36977 0.85663 1.48571ZM0 1.48571C0 1.1914 0.0849501 0.90387 0.243853 0.660337C0.682172 -0.0114292 1.56114 -0.186471 2.20709 0.269371L11.335 6.7109C11.4937 6.82291 11.6306 6.96523 11.7383 7.1303C12.2085 7.85092 12.0279 8.8315 11.335 9.3205L2.20709 15.762C1.97292 15.9273 1.69644 16.0156 1.41344 16.0156C0.632818 16.0156 0 15.3575 0 14.5457V1.48571Z" fill="white"/>
<path d="M0.85663 1.48571V14.5457C0.85663 14.8655 1.10592 15.1248 1.41344 15.1248C1.52492 15.1248 1.63384 15.0899 1.72609 15.0248L10.854 8.58332C11.1554 8.3706 11.234 7.94401 11.0294 7.63052C10.9826 7.55871 10.923 7.4968 10.854 7.44807L1.72609 1.00655C1.47163 0.826972 1.12536 0.895929 0.952693 1.16056C0.890095 1.2565 0.85663 1.36977 0.85663 1.48571Z" fill="white"/>
</svg>
