<svg width="23" height="30" viewBox="0 0 23 30" fill="none" xmlns="http://www.w3.org/2000/svg">
<path d="M11.9724 0.652008C13.7911 0.652008 15.2724 0.813342 16.4164 1.13601C17.5898 1.42934 18.6898 2.01601 19.7164 2.89601C21.7111 4.65601 22.7084 7.04667 22.7084 10.068C22.7084 12.6787 21.9018 14.7907 20.2884 16.404C18.4991 18.1347 16.0204 19 12.8524 19H9.15645V21.772H17.2524V25.732H9.15645V30H3.43645V25.732H0.356445V21.772H3.43645V19H0.356445V14.204H3.43645V0.652008H11.9724ZM9.15645 5.58001V14.204H11.4884C13.1604 14.204 14.4071 13.896 15.2284 13.28C16.2844 12.4587 16.8124 11.3147 16.8124 9.84801C16.8124 8.41067 16.2698 7.29601 15.1844 6.50401C14.3044 5.88801 12.9551 5.58001 11.1364 5.58001H9.15645Z" fill="#34A8FF"/>
</svg>
