<svg width="21" height="21" viewBox="0 0 21 21" fill="none" xmlns="http://www.w3.org/2000/svg">
<path d="M6.61418 20C6.12621 19.9971 5.6524 19.8357 5.26419 19.54L3.19419 18C2.7165 17.6276 2.39954 17.0863 2.30841 16.4875C2.21729 15.8887 2.35891 15.2777 2.70419 14.78C2.88687 14.5102 3.00298 14.201 3.04296 13.8777C3.08294 13.5543 3.04566 13.2261 2.93419 12.92L2.87419 12.76C2.79656 12.4829 2.65469 12.228 2.46009 12.0161C2.26549 11.8041 2.02364 11.641 1.75419 11.54H1.59419C1.01006 11.3436 0.526995 10.9247 0.249894 10.3742C-0.0272063 9.82374 -0.0759726 9.1862 0.114185 8.6L0.934185 6C1.00967 5.69876 1.14864 5.41713 1.3418 5.17396C1.53496 4.93078 1.77784 4.73169 2.05419 4.59C2.31154 4.4574 2.59312 4.3784 2.88188 4.35777C3.17065 4.33715 3.4606 4.37533 3.73419 4.47C4.03207 4.57025 4.34993 4.59624 4.66014 4.5457C4.97035 4.49516 5.26353 4.36962 5.51419 4.18L5.64419 4.08C5.87108 3.89895 6.05446 3.6693 6.1808 3.40796C6.30714 3.14663 6.37322 2.86027 6.37419 2.57V2.33C6.3715 1.71813 6.61064 1.12997 7.03953 0.693583C7.46843 0.257192 8.05236 0.00790627 8.66419 0H11.2142C11.5119 0.000802192 11.8064 0.0604042 12.081 0.175383C12.3556 0.290362 12.6048 0.458452 12.8142 0.67C13.2545 1.11779 13.4991 1.72202 13.4942 2.35V2.63C13.4891 2.90575 13.5489 3.17884 13.6688 3.42723C13.7886 3.67562 13.9652 3.89237 14.1842 4.06L14.2942 4.14C14.5186 4.3083 14.7804 4.41984 15.0573 4.46511C15.3341 4.51039 15.6178 4.48805 15.8842 4.4L16.2242 4.29C16.5122 4.19451 16.8166 4.15802 17.1191 4.1827C17.4215 4.20737 17.7159 4.29272 17.9847 4.43364C18.2535 4.57456 18.4911 4.76817 18.6835 5.00292C18.8758 5.23767 19.0189 5.50876 19.1042 5.8L19.8942 8.32C20.077 8.90239 20.027 9.53296 19.7548 10.0793C19.4825 10.6256 19.0092 11.0452 18.4342 11.25L18.2342 11.32C17.94 11.4163 17.674 11.5834 17.4596 11.8066C17.2451 12.0298 17.0887 12.3022 17.0042 12.6C16.9246 12.8768 16.9057 13.1675 16.9489 13.4523C16.992 13.7371 17.0962 14.0092 17.2542 14.25L17.5142 14.63C17.859 15.1304 17.9993 15.7438 17.9063 16.3444C17.8133 16.945 17.4942 17.4872 17.0142 17.86L15.0042 19.41C14.7614 19.5957 14.4831 19.7297 14.1865 19.8039C13.8899 19.878 13.5813 19.8906 13.2796 19.8409C12.978 19.7913 12.6897 19.6804 12.4325 19.5152C12.1753 19.3499 11.9547 19.1337 11.7842 18.88L11.6642 18.71C11.5004 18.4639 11.2769 18.2632 11.0146 18.1268C10.7523 17.9904 10.4597 17.9227 10.1642 17.93C9.88216 17.9373 9.6058 18.0108 9.3574 18.1445C9.10901 18.2783 8.89553 18.4686 8.73419 18.7L8.50419 19.03C8.33363 19.2855 8.11255 19.5034 7.85457 19.6702C7.5966 19.8371 7.30719 19.9493 7.00419 20C6.8745 20.0127 6.74387 20.0127 6.61418 20ZM2.40419 9.62C2.96888 9.82136 3.47841 10.1525 3.89178 10.5867C4.30516 11.0209 4.61082 11.5461 4.78419 12.12V12.24C5.00012 12.8366 5.07102 13.4761 4.99104 14.1055C4.91105 14.735 4.68248 15.3363 4.32419 15.86C4.26094 15.9299 4.22592 16.0208 4.22592 16.115C4.22592 16.2092 4.26094 16.3001 4.32419 16.37L6.47419 18C6.50224 18.022 6.53468 18.0378 6.56933 18.0463C6.60398 18.0547 6.64004 18.0557 6.67508 18.049C6.71013 18.0424 6.74335 18.0284 6.77252 18.0078C6.80169 17.9873 6.82612 17.9608 6.84419 17.93L7.07418 17.6C7.42107 17.0988 7.88433 16.6891 8.42424 16.4062C8.96416 16.1232 9.56463 15.9754 10.1742 15.9754C10.7837 15.9754 11.3842 16.1232 11.9241 16.4062C12.464 16.6891 12.9273 17.0988 13.2742 17.6L13.3942 17.78C13.4372 17.841 13.5013 17.8838 13.5742 17.9C13.6076 17.9049 13.6416 17.903 13.6743 17.8944C13.707 17.8859 13.7375 17.8707 13.7642 17.85L15.8242 16.29C15.8963 16.2328 15.9437 16.1501 15.9568 16.0589C15.9698 15.9678 15.9474 15.8751 15.8942 15.8L15.6342 15.42C15.2954 14.926 15.0719 14.3622 14.9802 13.7703C14.8884 13.1783 14.9308 12.5734 15.1042 12C15.2799 11.3974 15.5978 10.8458 16.0311 10.3916C16.4644 9.93738 17.0005 9.59389 17.5942 9.39L17.7942 9.32C17.8775 9.28661 17.9443 9.2216 17.9799 9.13917C18.0155 9.05674 18.017 8.96357 17.9842 8.88L17.2042 6.39C17.1855 6.34643 17.1581 6.30713 17.1237 6.27446C17.0893 6.2418 17.0487 6.21647 17.0042 6.2C16.9747 6.18507 16.9422 6.17728 16.9092 6.17728C16.8762 6.17728 16.8436 6.18507 16.8142 6.2L16.4742 6.31C15.899 6.49982 15.2864 6.54712 14.6889 6.44783C14.0914 6.34855 13.527 6.10564 13.0442 5.74L13.0042 5.65C12.5409 5.29912 12.1652 4.84561 11.9067 4.32509C11.6481 3.80456 11.5138 3.23119 11.5142 2.65V2.34C11.516 2.24362 11.4801 2.15033 11.4142 2.08C11.3567 2.02801 11.2817 1.99946 11.2042 2H8.66419C8.62345 2.00254 8.58361 2.01311 8.54696 2.03109C8.51032 2.04906 8.47758 2.0741 8.45064 2.10476C8.42369 2.13542 8.40307 2.1711 8.38995 2.20976C8.37683 2.24841 8.37147 2.28927 8.37419 2.33V2.58C8.37425 3.17704 8.23723 3.76612 7.9737 4.30185C7.71017 4.83758 7.32716 5.30565 6.85419 5.67L6.72419 5.77C6.21391 6.15851 5.61591 6.41553 4.98288 6.51842C4.34985 6.62131 3.70123 6.5669 3.09419 6.36C3.04876 6.34476 2.99961 6.34476 2.95419 6.36C2.89775 6.39429 2.85525 6.44741 2.83419 6.51L2.00419 9.12C1.97525 9.20889 1.98203 9.30555 2.02309 9.38953C2.06415 9.47352 2.13627 9.53824 2.22418 9.57L2.40419 9.62Z" fill="#343434"/>
<path d="M10.0039 13.5C9.31167 13.5 8.63498 13.2947 8.05941 12.9101C7.48384 12.5256 7.03524 11.9789 6.77033 11.3394C6.50542 10.6999 6.43611 9.99612 6.57116 9.31719C6.70621 8.63825 7.03955 8.01461 7.52903 7.52513C8.01852 7.03564 8.64216 6.7023 9.32109 6.56725C10 6.4322 10.7038 6.50152 11.3433 6.76642C11.9828 7.03133 12.5295 7.47993 12.9141 8.05551C13.2986 8.63108 13.5039 9.30777 13.5039 10C13.5039 10.9283 13.1352 11.8185 12.4788 12.4749C11.8224 13.1313 10.9322 13.5 10.0039 13.5ZM10.0039 8.5C9.70724 8.5 9.41723 8.58798 9.17055 8.7528C8.92388 8.91762 8.73162 9.15189 8.61809 9.42598C8.50456 9.70007 8.47485 10.0017 8.53273 10.2926C8.59061 10.5836 8.73347 10.8509 8.94325 11.0607C9.15303 11.2704 9.4203 11.4133 9.71127 11.4712C10.0022 11.5291 10.3038 11.4994 10.5779 11.3858C10.852 11.2723 11.0863 11.08 11.2511 10.8334C11.4159 10.5867 11.5039 10.2967 11.5039 10C11.5039 9.60218 11.3459 9.22065 11.0646 8.93934C10.7833 8.65804 10.4017 8.5 10.0039 8.5Z" fill="#343434"/>
</svg>
