<svg width="27" height="26" viewBox="0 0 27 26" fill="none" xmlns="http://www.w3.org/2000/svg">
<path d="M10.936 26.0001C12.1751 26.0001 13.1796 24.9956 13.1796 23.7565C13.1796 22.5174 12.1751 21.5129 10.936 21.5129C9.69687 21.5129 8.69238 22.5174 8.69238 23.7565C8.69238 24.9956 9.69687 26.0001 10.936 26.0001Z" fill="#6A93AA"/>
<path d="M21.8334 26.0001C23.0725 26.0001 24.077 24.9956 24.077 23.7565C24.077 22.5174 23.0725 21.5129 21.8334 21.5129C20.5943 21.5129 19.5898 22.5174 19.5898 23.7565C19.5898 24.9956 20.5943 26.0001 21.8334 26.0001Z" fill="#6A93AA"/>
<path fill-rule="evenodd" clip-rule="evenodd" d="M0.145204 0.481245C0.423129 0.0232461 1.01262 -0.134369 1.48203 0.123809L14.0775 7.05131H26.0001C26.3153 7.05131 26.612 7.19987 26.8008 7.45221C26.9896 7.70455 27.0484 8.03112 26.9595 8.33347L23.7544 19.2309C23.6292 19.6565 23.2386 19.9487 22.795 19.9487H9.97447C9.50757 19.9487 9.10281 19.6257 8.99934 19.1704L5.88264 5.45689L0.445411 1.83207C-0.000341773 1.53491 -0.132722 0.939244 0.145204 0.481245ZM8.06295 6.02586L10.7727 17.9487H22.0467L22.9668 14.8205H13.8206C13.2683 14.8205 12.8206 14.3728 12.8206 13.8205C12.8206 13.2683 13.2683 12.8205 13.8206 12.8205H23.555L24.6636 9.05131H13.8206C13.6521 9.05131 13.4864 9.00873 13.3387 8.92752L8.06295 6.02586Z" fill="#6A93AA"/>
</svg>
