<svg width="36" height="36" viewBox="0 0 36 36" fill="none" xmlns="http://www.w3.org/2000/svg">
<path d="M18 0C8.0588 0 0 8.0588 0 18C0 27.9412 8.0588 36 18 36C27.9412 36 36 27.9412 36 18C36 8.0588 27.9412 0 18 0Z" fill="#40B3E0"/>
<path d="M26.7583 10.3542L23.5432 26.5639C23.5432 26.5639 23.0936 27.6881 21.8571 27.1485L14.438 21.4605L11.7402 20.1566L7.1989 18.6278C7.1989 18.6278 6.50196 18.3805 6.43446 17.841C6.36696 17.3014 7.2214 17.0092 7.2214 17.0092L25.2743 9.92729C25.2743 9.92729 26.7582 9.27535 26.7582 10.3545" fill="white"/>
<path d="M13.8679 26.3817C13.8679 26.3817 13.6513 26.3614 13.3813 25.507C13.1117 24.6527 11.7402 20.1563 11.7402 20.1563L22.644 13.2319C22.644 13.2319 23.2736 12.8497 23.2511 13.2319C23.2511 13.2319 23.3635 13.2994 23.0261 13.6142C22.689 13.929 14.4606 21.3255 14.4606 21.3255" fill="#D2E5F1"/>
<path d="M17.283 23.6412L14.3485 26.3167C14.3485 26.3167 14.119 26.4908 13.8682 26.3817L14.4301 21.412" fill="#B5CFE4"/>
</svg>
