<svg width="38" height="38" viewBox="0 0 38 38" fill="none" xmlns="http://www.w3.org/2000/svg">
<g clip-path="url(#clip0_541_4)">
<path d="M10.0441 32.5455L10.6653 32.8525C13.254 34.3876 16.1532 35.1041 19.0525 35.1041C28.1643 35.1041 35.6194 27.7353 35.6194 18.729C35.6194 14.4306 33.8591 10.2345 30.7529 7.1641C27.6465 4.09373 23.5047 2.35394 19.0525 2.35394C9.94062 2.35394 2.48535 9.72271 2.58896 18.8314C2.58896 21.9016 3.52085 24.8697 5.07395 27.4282L5.48809 28.0424L3.83153 34.0807L10.0441 32.5455Z" fill="#26C577"/>
<path d="M32.5127 5.52658C28.9922 1.9446 24.1257 0 19.1556 0C8.59423 0 0.103609 8.49454 0.20707 18.8313C0.20707 22.1063 1.13896 25.2791 2.69221 28.1446L0 37.8674L10.0437 35.3087C12.8394 36.844 15.9456 37.5604 19.0521 37.5604C29.51 37.5604 38.0006 29.0657 38.0006 18.7292C38.0006 13.7142 36.0332 9.00629 32.5129 5.52658H32.5127ZM19.1556 34.3878C16.3599 34.3878 13.5642 33.6715 11.1827 32.2387L10.5615 31.9316L4.55599 33.4667L6.10909 27.6332L5.69495 27.019C1.13896 19.7527 3.31342 10.1321 10.7685 5.62884C18.2237 1.12577 27.8533 3.27504 32.4092 10.6438C36.9651 18.0126 34.7906 27.5306 27.3357 32.0339C24.954 33.569 22.0548 34.3877 19.1556 34.3877V34.3878ZM28.2674 23.0277L27.1284 22.516C27.1284 22.516 25.4719 21.7995 24.4364 21.2878C24.3328 21.2878 24.2293 21.1854 24.1257 21.1854C23.815 21.1854 23.6079 21.2878 23.4009 21.3902C23.4009 21.3902 23.2974 21.4924 21.8478 23.13C21.7442 23.3346 21.5371 23.437 21.33 23.437H21.2264C21.1229 23.437 20.9159 23.3346 20.8123 23.2324L20.2945 23.0277C19.1556 22.516 18.1202 21.9018 17.2918 21.0831C17.0847 20.8784 16.774 20.6738 16.567 20.4691C15.8421 19.7527 15.1173 18.9338 14.5997 18.0127L14.4961 17.8081C14.3926 17.7057 14.3926 17.6034 14.289 17.3987C14.289 17.194 14.289 16.9894 14.3926 16.887C14.3926 16.887 14.8068 16.3752 15.1173 16.0683C15.3245 15.8635 15.428 15.5565 15.6351 15.3519C15.8421 15.0448 15.9457 14.6354 15.8421 14.3283C15.7387 13.8166 14.4961 11.0533 14.1856 10.4393C13.9784 10.1322 13.7714 10.0299 13.4608 9.92754H12.3218C12.1146 9.92754 11.9077 10.0299 11.7004 10.0299L11.5968 10.1322C11.3898 10.2346 11.1827 10.4393 10.9756 10.5416C10.7685 10.7464 10.6649 10.9509 10.4579 11.1557C9.73305 12.0768 9.3189 13.2026 9.3189 14.3283C9.3189 15.147 9.52598 15.9659 9.83665 16.6823L9.94026 16.9894C10.8722 18.9338 12.1146 20.6738 13.7714 22.2089L14.1856 22.6182C14.4961 22.9253 14.8068 23.13 15.0139 23.4369C17.1883 25.2792 19.6733 26.6097 22.469 27.3261C22.7797 27.4284 23.1938 27.4284 23.5045 27.5308H24.5398C25.0576 27.5308 25.6788 27.3261 26.0931 27.1214C26.4036 26.9168 26.6107 26.9168 26.8178 26.7121L27.025 26.5073C27.232 26.3026 27.4391 26.2003 27.6462 25.9957C27.8533 25.791 28.0603 25.5863 28.1639 25.3815C28.371 24.9722 28.4745 24.4604 28.5781 23.9488V23.2324C28.5781 23.2324 28.4745 23.13 28.2674 23.0277Z" fill="white"/>
</g>
<defs>
<clipPath id="clip0_541_4">
<rect width="38" height="38" fill="white"/>
</clipPath>
</defs>
</svg>
