<svg width="48" height="44" viewBox="0 0 48 44" fill="none" xmlns="http://www.w3.org/2000/svg">
<path opacity="0.3" d="M12.5225 12.5219V18.7828H10.4355V39.6523H43.8269V14.6088H35.3747L31.5555 10.4349H18.7834V12.5219H12.5225ZM27.1312 16.6958C32.8912 16.6958 37.566 21.3706 37.566 27.1306C37.566 32.8906 32.8912 37.5654 27.1312 37.5654C21.3712 37.5654 16.6964 32.8906 16.6964 27.1306C16.6964 21.3706 21.3712 16.6958 27.1312 16.6958Z" fill="#C9C9C9"/>
<path d="M43.8261 10.4348H37.2104L33.3913 6.26087H18.7826V10.4348H31.5548L35.3739 14.6087H43.8261V39.6522H10.4348V18.7826H6.26087V39.6522C6.26087 41.9478 8.13913 43.8261 10.4348 43.8261H43.8261C46.1217 43.8261 48 41.9478 48 39.6522V14.6087C48 12.313 46.1217 10.4348 43.8261 10.4348ZM16.6957 27.1304C16.6957 32.8904 21.3704 37.5652 27.1304 37.5652C32.8904 37.5652 37.5652 32.8904 37.5652 27.1304C37.5652 21.3704 32.8904 16.6957 27.1304 16.6957C21.3704 16.6957 16.6957 21.3704 16.6957 27.1304ZM27.1304 20.8696C30.5739 20.8696 33.3913 23.687 33.3913 27.1304C33.3913 30.5739 30.5739 33.3913 27.1304 33.3913C23.687 33.3913 20.8696 30.5739 20.8696 27.1304C20.8696 23.687 23.687 20.8696 27.1304 20.8696ZM10.4348 16.6957V10.4348H16.6957V6.26087H10.4348V0H6.26087V6.26087H0V10.4348H6.26087V16.6957H10.4348Z" fill="#C9C9C9"/>
</svg>
