<svg width="33" height="42" viewBox="0 0 33 42" fill="none" xmlns="http://www.w3.org/2000/svg">
<path d="M16.5 18.6667C18.3648 18.6667 20.1877 18.1193 21.7382 17.0937C23.2888 16.0682 24.4972 14.6105 25.2109 12.905C25.9245 11.1996 26.1112 9.32298 25.7474 7.51249C25.3836 5.702 24.4856 4.03896 23.167 2.73367C21.8484 1.42838 20.1684 0.53947 18.3394 0.179342C16.5105 -0.180787 14.6147 0.00404396 12.8918 0.710462C11.169 1.41688 9.69646 2.61316 8.66043 4.14801C7.62441 5.68287 7.07143 7.48738 7.07143 9.33334C7.07143 11.8087 8.06479 14.1827 9.83299 15.933C11.6012 17.6833 13.9994 18.6667 16.5 18.6667ZM16.5 4.66667C17.4324 4.66667 18.3439 4.94037 19.1191 5.45315C19.8944 5.96593 20.4986 6.69476 20.8554 7.54748C21.2122 8.4002 21.3056 9.33851 21.1237 10.2438C20.9418 11.149 20.4928 11.9805 19.8335 12.6332C19.1742 13.2858 18.3342 13.7303 17.4197 13.9103C16.5052 14.0904 15.5573 13.998 14.6959 13.6448C13.8345 13.2916 13.0982 12.6934 12.5802 11.926C12.0622 11.1586 11.7857 10.2563 11.7857 9.33334C11.7857 8.09566 12.2824 6.90867 13.1665 6.0335C14.0506 5.15833 15.2497 4.66667 16.5 4.66667ZM16.5 23.3333C12.1239 23.3333 7.92709 25.0542 4.83274 28.1173C1.73839 31.1804 0 35.3348 0 39.6667C0 40.2855 0.248342 40.879 0.690392 41.3166C1.13244 41.7542 1.73199 42 2.35714 42C2.9823 42 3.58184 41.7542 4.02389 41.3166C4.46594 40.879 4.71429 40.2855 4.71429 39.6667C4.71429 36.5725 5.95599 33.605 8.16624 31.4171C10.3765 29.2292 13.3742 28 16.5 28C19.6258 28 22.6235 29.2292 24.8338 31.4171C27.044 33.605 28.2857 36.5725 28.2857 39.6667C28.2857 40.2855 28.5341 40.879 28.9761 41.3166C29.4182 41.7542 30.0177 42 30.6429 42C31.268 42 31.8676 41.7542 32.3096 41.3166C32.7517 40.879 33 40.2855 33 39.6667C33 35.3348 31.2616 31.1804 28.1673 28.1173C25.0729 25.0542 20.8761 23.3333 16.5 23.3333Z" fill="white"/>
</svg>
